<svg xmlns="http://www.w3.org/2000/svg" width="600" height="600" viewBox="0 0 600 600">
  <title>讯枢 dark linework wallpaper</title>
  <desc>Thirty monochrome line drawings on a solid background. Repeat this tile in both directions.</desc>
  <defs>
    <g id="paper-plane"><path d="m44 4-14 40-8-18-18-8L44 4ZM44 4 22 26"/></g>
    <g id="planet"><g transform="rotate(-25 24 24)"><ellipse cx="24" cy="24" rx="23" ry="7"/><circle cx="24" cy="24" r="14" fill="#111820"/><path d="M1 24c0 9.3 46 9.3 46 0"/></g></g>
    <g id="chat"><path d="M12 7h24a8 8 0 0 1 8 8v15a8 8 0 0 1-8 8H21l-11 7 1-7a8 8 0 0 1-7-8V15a8 8 0 0 1 8-8Z"/><path d="M13 18h22M13 26h14"/></g>
    <g id="cloud"><path d="M13 36a10 10 0 1 1 1-20 13 13 0 0 1 25 5 8 8 0 1 1 1 15H13Z"/></g>
    <g id="sun"><circle cx="24" cy="24" r="10"/><path d="M24 3v5M24 40v5M3 24h5M40 24h5M9 9l4 4M35 35l4 4M9 39l4-4M35 13l4-4"/></g>
    <g id="moon"><path d="M39 29A18 18 0 0 1 19 7a18 18 0 1 0 20 22Z"/><path d="M34 5v8M30 9h8M43 17v4M41 19h4"/></g>
    <g id="book"><path d="M24 12C17 7 9 7 3 9v29c7-2 14-1 21 4 7-5 14-6 21-4V9c-6-2-14-2-21 3ZM24 12v30M10 16l7 1M10 24l7 1M31 17l7-1M31 25l7-1"/></g>
    <g id="document"><path d="M10 3h19l11 11v30H10a4 4 0 0 1-4-4V7a4 4 0 0 1 4-4ZM29 3v11h11M14 24h17M14 31h17M14 38h9"/></g>
    <g id="coffee"><path d="M5 17h29v14a11 11 0 0 1-11 11h-7A11 11 0 0 1 5 31V17ZM34 20h4a7 7 0 0 1 0 14h-4M11 4c-5 4 5 5 0 9M21 2c-5 4 5 5 0 9M31 4c-5 4 5 5 0 9"/></g>
    <g id="camera"><path d="m14 12 4-6h12l4 6h6a5 5 0 0 1 5 5v20a5 5 0 0 1-5 5H8a5 5 0 0 1-5-5V17a5 5 0 0 1 5-5h6Z"/><circle cx="24" cy="27" r="9"/><path d="M36 19h2"/></g>
    <g id="headphones"><path d="M6 29v-6a18 18 0 0 1 36 0v6"/><rect x="4" y="25" width="10" height="18" rx="4"/><rect x="34" y="25" width="10" height="18" rx="4"/></g>
    <g id="heart"><path d="M24 41 7 25C-5 13 12-2 24 12 36-2 53 13 41 25L24 41Z"/></g>
    <g id="bell"><path d="M10 33V20a14 14 0 0 1 28 0v13l5 5H5l5-5ZM19 44h10M24 6V3"/></g>
    <g id="rocket"><path d="M14 30 10 26Q17 6 42 6Q42 31 22 38l-8-8ZM20.25 11H9L3 29l7-3M37 26.5V40l-15 5v-7M9 36l-5 6M14 41l-3 4"/><circle cx="30" cy="18" r="5"/></g>
    <g id="map"><path d="m3 11 14-7 14 7 14-7v33l-14 7-14-7-14 7V11ZM17 4v33M31 11v33"/></g>
    <g id="leaf"><path d="M9 35C-3 12 18 4 43 5c-1 27-12 43-34 30ZM5 43 34 14M17 31v-9M17 31h10"/></g>
    <g id="bulb"><path d="M16 34v-3a15 15 0 1 1 16 0v3M16 35h16M18 41h12M21 46h6M24 34V23M18 20l6 6 6-6"/></g>
    <g id="envelope"><rect x="3" y="9" width="42" height="30" rx="5"/><path d="m4 13 20 15 20-15M4 36l12-13M44 36 32 23"/></g>
    <g id="calendar"><rect x="5" y="9" width="38" height="35" rx="5"/><path d="M14 3v12M34 3v12M5 20h38M14 28h3M25 28h3M14 36h3M25 36h3"/></g>
    <g id="star"><path d="m24 3 6 13 15 2-11 10 3 15-13-7-13 7 3-15L3 18l15-2L24 3Z"/></g>
    <g id="paperclip"><path d="m17 34 15-15a6 6 0 0 0-8-8L7 28a10 10 0 0 0 14 14l18-18A14 14 0 0 0 19 4L4 19"/></g>
    <g id="music"><path d="M17 35V11l25-6v24M17 18l25-6"/><ellipse cx="10" cy="37" rx="7" ry="5"/><ellipse cx="35" cy="31" rx="7" ry="5"/></g>
    <g id="compass"><circle cx="24" cy="24" r="20"/><path d="m32 14-4 14-14 6 6-14 12-6ZM20 20l8 8"/></g>
    <g id="key"><circle cx="14" cy="15" r="10"/><path d="m21 22 21 21M33 34l5-5M38 39l5-5"/><circle cx="11" cy="12" r="2"/></g>
    <g id="pencil"><path d="m8 31 24-24a5 5 0 0 1 7 0l2 2a5 5 0 0 1 0 7L17 40 4 44l4-13ZM28 11l9 9M8 31l9 9"/></g>
    <g id="mountain"><path d="m2 40 14-25 11 18 8-13 11 20H2ZM11 24l5 4 5-4M30 28l5 3 4-3"/><circle cx="32" cy="8" r="5"/></g>
    <g id="umbrella"><path d="M4 23a20 20 0 0 1 40 0c-5-4-8-4-13 0-5-4-9-4-14 0-5-4-8-4-13 0ZM24 4v34a6 6 0 0 0 12 0M17 23c0-11 3-18 7-19 4 1 7 8 7 19"/></g>
    <g id="bookmark"><path d="M12 4h24v40L24 34 12 44V4Z"/><path d="M19 14h10M19 21h10"/></g>
    <g id="flower"><path d="M18 17C5 3 32-6 30 14 48 6 52 32 33 29c8 18-18 23-17 5C-2 39-5 13 18 17Z"/><circle cx="24" cy="24" r="6"/></g>
    <g id="atom"><ellipse cx="24" cy="24" rx="21" ry="8"/><ellipse cx="24" cy="24" rx="21" ry="8" transform="rotate(60 24 24)"/><ellipse cx="24" cy="24" rx="21" ry="8" transform="rotate(120 24 24)"/><circle cx="24" cy="24" r="2"/></g>
  </defs>
  <rect width="600" height="600" fill="#111820"/>
  <g fill="none" stroke="#718292" stroke-opacity=".13" stroke-width="1.5" stroke-linecap="round" stroke-linejoin="round">
    <use href="#paper-plane" transform="translate(33 23) scale(0.833333) rotate(8 24 24)" stroke-width="1.800000"/>
    <use href="#planet" transform="translate(334.2 329.9) scale(1.000000) rotate(14 24 24)" stroke-width="1.500000"/>
    <use href="#chat" transform="translate(340.6 37.6) scale(0.791667) rotate(14 24 24)" stroke-width="1.894737"/>
    <use href="#cloud" transform="translate(11.1 309.2) scale(0.750000) rotate(-6 24 24)" stroke-width="2.000000"/>
    <use href="#cloud" transform="translate(611.1 309.2) scale(0.750000) rotate(-6 24 24)" stroke-width="2.000000"/>
    <use href="#sun" transform="translate(206 198.1) scale(0.625000) rotate(14 24 24)" stroke-width="2.400000"/>
    <use href="#moon" transform="translate(157.4 464.8) scale(0.750000) rotate(8 24 24)" stroke-width="2.000000"/>
    <use href="#book" transform="translate(512.8 462.2) scale(0.812500) rotate(14 24 24)" stroke-width="1.846154"/>
    <use href="#document" transform="translate(484.8 159.1) scale(0.729167) rotate(-6 24 24)" stroke-width="2.057143"/>
    <use href="#coffee" transform="translate(332.4 484.7) scale(0.812500) rotate(14 24 24)" stroke-width="1.846154"/>
    <use href="#camera" transform="translate(205.5 37.6) scale(0.750000) rotate(-18 24 24)" stroke-width="2.000000"/>
    <use href="#headphones" transform="translate(344.7 185.9) scale(0.770833) rotate(8 24 24)" stroke-width="1.945946"/>
    <use href="#heart" transform="translate(56.9 151.7) scale(0.708333) rotate(14 24 24)" stroke-width="2.117647"/>
    <use href="#bell" transform="translate(490.9 30.4) scale(0.708333) rotate(-12 24 24)" stroke-width="2.117647"/>
    <use href="#rocket" transform="translate(150.3 325.8) scale(0.812500) rotate(20 24 24)" stroke-width="1.846154"/>
    <use href="#map" transform="translate(453 308.3) scale(0.770833) rotate(-6 24 24)" stroke-width="1.945946"/>
    <use href="#leaf" transform="translate(65 402.9) scale(0.812500) rotate(-18 24 24)" stroke-width="1.846154"/>
    <use href="#bulb" transform="translate(253.3 408.2) scale(0.708333) rotate(8 24 24)" stroke-width="2.117647"/>
    <use href="#envelope" transform="translate(36.6 515.6) scale(0.791667) rotate(-6 24 24)" stroke-width="1.894737"/>
    <use href="#calendar" transform="translate(416.8 541.7) scale(0.770833) rotate(-6 24 24)" stroke-width="1.945946"/>
    <use href="#star" transform="translate(253.4 542.6) scale(0.666667) rotate(-6 24 24)" stroke-width="2.250000"/>
    <use href="#paperclip" transform="translate(260.9 281) scale(0.708333) rotate(-6 24 24)" stroke-width="2.117647"/>
    <use href="#music" transform="translate(-55.4 373.8) scale(0.770833) rotate(8 24 24)" stroke-width="1.945946"/>
    <use href="#music" transform="translate(544.6 373.8) scale(0.770833) rotate(8 24 24)" stroke-width="1.945946"/>
    <use href="#compass" transform="translate(106.8 238.8) scale(0.791667) rotate(14 24 24)" stroke-width="1.894737"/>
    <use href="#key" transform="translate(116.7 79.4) scale(0.750000) rotate(-18 24 24)" stroke-width="2.000000"/>
    <use href="#pencil" transform="translate(139.1 -36.4) scale(0.770833) rotate(8 24 24)" stroke-width="1.945946"/>
    <use href="#pencil" transform="translate(139.1 563.6) scale(0.770833) rotate(8 24 24)" stroke-width="1.945946"/>
    <use href="#mountain" transform="translate(-38 -35.6) scale(0.791667) rotate(-18 24 24)" stroke-width="1.894737"/>
    <use href="#mountain" transform="translate(-38 564.4) scale(0.791667) rotate(-18 24 24)" stroke-width="1.894737"/>
    <use href="#mountain" transform="translate(562 -35.6) scale(0.791667) rotate(-18 24 24)" stroke-width="1.894737"/>
    <use href="#mountain" transform="translate(562 564.4) scale(0.791667) rotate(-18 24 24)" stroke-width="1.894737"/>
    <use href="#umbrella" transform="translate(410 405) scale(0.812500) rotate(14 24 24)" stroke-width="1.846154"/>
    <use href="#bookmark" transform="translate(247 121.2) scale(0.666667) rotate(14 24 24)" stroke-width="2.250000"/>
    <use href="#flower" transform="translate(385.2 267.4) scale(0.770833) rotate(-18 24 24)" stroke-width="1.945946"/>
    <use href="#atom" transform="translate(-57.1 231.4) scale(0.833333) rotate(-12 24 24)" stroke-width="1.800000"/>
    <use href="#atom" transform="translate(542.9 231.4) scale(0.833333) rotate(-12 24 24)" stroke-width="1.800000"/>
    <g><circle cx="12" cy="479" r="2"/><circle cx="6" cy="403" r="2"/><circle cx="331" cy="401" r="2"/><circle cx="11" cy="275" r="2"/><circle cx="89" cy="367" r="2"/><circle cx="266" cy="17" r="2"/><circle cx="115" cy="487" r="2"/><circle cx="424" cy="119" r="2"/><circle cx="263" cy="380" r="2"/><circle cx="371" cy="143" r="2"/><circle cx="340" cy="297" r="2"/><circle cx="202" cy="101" r="2"/><circle cx="133" cy="527" r="2"/><circle cx="434" cy="34" r="2"/><path d="M513 387h6M516 384v6"/><path d="M217 349h6M220 346v6"/><path d="M280 244h6M283 241v6"/><path d="M106 29h6M109 26v6"/><path d="M78 280h6M81 277v6"/><path d="M477 415h6M480 412v6"/><path d="M178 191h6M181 188v6"/><path d="M75 225h6M78 222v6"/><path d="M283 468h6M286 465v6"/><path d="M475 539h6M478 536v6"/><path d="M577 50h6M580 47v6"/><path d="M292 176h6M295 173v6"/></g>
  </g>
</svg>
